<svg xmlns="http://www.w3.org/2000/svg" version="1.1" xmlns:xlink="http://www.w3.org/1999/xlink" xmlns:svgjs="http://svgjs.dev/svgjs" width="2000" height="1999" viewBox="0 0 2000 1999"><g transform="matrix(1,0,0,1,-0.431486880466764,-0.4312711370263287)"><svg viewBox="0 0 343 343" data-background-color="#333366" preserveAspectRatio="xMidYMid meet" height="1999" width="2000" xmlns="http://www.w3.org/2000/svg" xmlns:xlink="http://www.w3.org/1999/xlink"><g id="tight-bounds" transform="matrix(1,0,0,1,0.0740000000000407,0.07400000000001228)"><svg viewBox="0 0 342.85155851775386 342.85155851775386" height="342.85155851775386" width="342.85155851775386"><g><svg></svg></g><g><svg viewBox="0 0 342.85155851775386 342.85155851775386" height="342.85155851775386" width="342.85155851775386"><g><path d="M0 171.426c0-94.676 76.75-171.426 171.426-171.426 94.676 0 171.426 76.75 171.426 171.426 0 94.676-76.75 171.426-171.426 171.426-94.676 0-171.426-76.75-171.426-171.426zM171.426 337.685c91.822 0 166.259-74.437 166.259-166.259 0-91.822-74.437-166.259-166.259-166.259-91.822 0-166.259 74.437-166.259 166.259 0 91.822 74.437 166.259 166.259 166.259z" data-fill-palette-color="tertiary" fill="#ffff33" stroke="transparent"></path><ellipse rx="164.56874808852186" ry="164.56874808852186" cx="171.42577925887693" cy="171.42577925887693" fill="#ffff33" stroke="transparent" stroke-width="0" fill-opacity="1" data-fill-palette-color="tertiary"></ellipse></g><g transform="matrix(1,0,0,1,64.84655864529837,122.46459943752896)"><svg viewBox="0 0 213.1584412271571 97.92235964269594" height="97.92235964269594" width="213.1584412271571"><g><svg viewBox="0 0 370.0982193749343 170.01855864639566" height="97.92235964269594" width="213.1584412271571"><g transform="matrix(1,0,0,1,155.87398594164142,0)"><svg viewBox="0 0 214.22423343329288 170.01855864639566" height="170.01855864639566" width="214.22423343329288"><g id="textblocktransform"><svg viewBox="0 0 214.22423343329288 170.01855864639566" height="170.01855864639566" width="214.22423343329288" id="textblock"><g><rect width="214.22423343329288" height="8.970662497708975" x="0" y="110.04147359527988" fill="#333366" opacity="1" stroke-width="0" stroke="transparent" fill-opacity="1" class="rect-o-0" data-fill-palette-color="quaternary" rx="1%" id="o-0" data-palette-color="#333366"></rect></g><g transform="matrix(1,0,0,1,0.532896103067884,0)"><svg viewBox="0 0 213.1584412271571 99.47393923933998" height="99.47393923933998" width="213.1584412271571"><g transform="matrix(1,0,0,1,0,0)"><svg width="213.1584412271571" viewBox="0 -50 93.75 43.75" height="99.47393923933998" data-palette-color="#333366"><path d="M12.5-6.25L0-6.25 0-50 12.5-50 12.5-43.75 18.75-43.75 18.75-37.5 25-37.5 25-43.75 31.25-43.75 31.25-50 43.75-50 43.75-6.25 31.25-6.25 31.25-31.25 25-31.25 25-18.75 18.75-18.75 18.75-31.25 12.5-31.25 12.5-6.25ZM62.5-6.25L50-6.25 50-50 62.5-50 62.5-43.75 68.75-43.75 68.75-37.5 75-37.5 75-31.25 81.25-31.25 81.25-50 93.75-50 93.75-6.25 81.25-6.25 81.25-18.75 75-18.75 75-25 68.75-25 68.75-31.25 62.5-31.25 62.5-6.25Z" opacity="1" transform="matrix(1,0,0,1,0,0)" fill="#333366" class="wordmark-text-0" data-fill-palette-color="quaternary" id="text-0"></path></svg></g></svg></g><g transform="matrix(1,0,0,1,0,129.57967044892874)"><svg viewBox="0 0 125.14532084446394 40.43888819746693" height="40.43888819746693" width="125.14532084446394"><g transform="matrix(1,0,0,1,0,0)"><svg width="125.14532084446394" viewBox="2.5399999618530273 -37.70000076293945 147.62001037597656 47.709999084472656" height="40.43888819746693" data-palette-color="#333366"><path d="M9.25-36.55L9.25 0 2.54 0 2.54-36.55 9.25-36.55ZM22.19-33.25L22.19-33.25Q22.19-32.32 21.84-31.52 21.48-30.71 20.87-30.11 20.26-29.52 19.44-29.16 18.63-28.81 17.7-28.81L17.7-28.81Q16.77-28.81 15.95-29.16 15.13-29.52 14.54-30.11 13.94-30.71 13.58-31.52 13.23-32.32 13.23-33.25L13.23-33.25Q13.23-34.16 13.58-34.97 13.94-35.79 14.54-36.39 15.13-36.99 15.95-37.34 16.77-37.7 17.7-37.7L17.7-37.7Q18.63-37.7 19.44-37.34 20.26-36.99 20.87-36.39 21.48-35.79 21.84-34.97 22.19-34.16 22.19-33.25ZM21.04-26.15L21.04 0 14.33 0 14.33-26.15 21.04-26.15ZM52.29-13.31L52.29-13.31Q52.29-10.23 51.24-7.69 50.19-5.15 48.38-3.33 46.58-1.51 44.15-0.51 41.72 0.49 38.94 0.49L38.94 0.49Q36.18 0.49 33.75-0.54 31.32-1.56 29.5-3.39 27.68-5.22 26.63-7.75 25.58-10.28 25.58-13.31L25.58-13.31 25.58-36.55 32.27-36.55 32.27-24.34Q32.81-25.02 33.58-25.56 34.35-26.1 35.24-26.44 36.13-26.78 37.08-26.97 38.03-27.15 38.94-27.15L38.94-27.15Q41.72-27.15 44.15-26.11 46.58-25.07 48.38-23.22 50.19-21.36 51.24-18.84 52.29-16.31 52.29-13.31ZM45.58-13.31L45.58-13.31Q45.58-14.82 45.05-16.13 44.53-17.43 43.62-18.38 42.72-19.34 41.51-19.87 40.3-20.41 38.94-20.41L38.94-20.41Q37.57-20.41 36.36-19.81 35.15-19.21 34.25-18.23 33.34-17.24 32.83-15.95 32.32-14.67 32.32-13.31L32.32-13.31Q32.32-11.79 32.83-10.5 33.34-9.2 34.25-8.25 35.15-7.3 36.36-6.75 37.57-6.2 38.94-6.2L38.94-6.2Q40.3-6.2 41.51-6.75 42.72-7.3 43.62-8.25 44.53-9.2 45.05-10.5 45.58-11.79 45.58-13.31ZM62.64-14.4L62.64 0 55.97 0 55.97-26.15 57.59-26.15 59.78-23.05Q61.39-24.51 63.44-25.31 65.5-26.1 67.69-26.1L67.69-26.1 73.58-26.1 73.58-19.46 67.69-19.46Q66.64-19.46 65.72-19.07 64.79-18.68 64.1-17.99 63.42-17.31 63.03-16.38 62.64-15.45 62.64-14.4L62.64-14.4ZM101.5-26.1L101.5 0 99.89 0 97.3-3.59Q96.35-2.73 95.29-1.99 94.23-1.25 93.06-0.7 91.88-0.15 90.65 0.17 89.42 0.49 88.15 0.49L88.15 0.49Q85.39 0.49 82.96-0.44 80.53-1.37 78.71-3.14 76.89-4.91 75.84-7.47 74.79-10.03 74.79-13.31L74.79-13.31Q74.79-16.36 75.84-18.91 76.89-21.46 78.71-23.29 80.53-25.12 82.96-26.14 85.39-27.15 88.15-27.15L88.15-27.15Q89.42-27.15 90.66-26.83 91.91-26.51 93.08-25.95 94.25-25.39 95.31-24.63 96.38-23.88 97.3-23L97.3-23 99.89-26.1 101.5-26.1ZM94.79-13.31L94.79-13.31Q94.79-14.67 94.26-15.95 93.74-17.24 92.84-18.23 91.93-19.21 90.72-19.81 89.52-20.41 88.15-20.41L88.15-20.41Q86.78-20.41 85.57-19.95 84.37-19.48 83.47-18.58 82.58-17.68 82.07-16.35 81.56-15.01 81.56-13.31L81.56-13.31Q81.56-11.6 82.07-10.27 82.58-8.94 83.47-8.03 84.37-7.13 85.57-6.67 86.78-6.2 88.15-6.2L88.15-6.2Q89.52-6.2 90.72-6.8 91.93-7.4 92.84-8.39 93.74-9.38 94.26-10.66 94.79-11.94 94.79-13.31ZM113.24-14.4L113.24 0 106.58 0 106.58-26.15 108.19-26.15 110.39-23.05Q112-24.51 114.05-25.31 116.1-26.1 118.3-26.1L118.3-26.1 124.18-26.1 124.18-19.46 118.3-19.46Q117.25-19.46 116.32-19.07 115.39-18.68 114.71-17.99 114.03-17.31 113.63-16.38 113.24-15.45 113.24-14.4L113.24-14.4ZM136.8 10.01L133.38 9.96 133.38 3.25 137.09 3.3Q138.07 3.3 138.97 2.98 139.88 2.66 140.65 2.1 141.42 1.54 142 0.77 142.59 0 142.95-0.9L142.95-0.9Q141.86-0.44 140.72 0.02 139.58 0.49 138.44 0.49L138.44 0.49Q136.02 0.49 133.9-0.37 131.77-1.22 130.17-2.8 128.57-4.37 127.66-6.63 126.74-8.89 126.74-11.69L126.74-11.69 126.74-26.15 133.38-26.15 133.38-11.69Q133.38-10.3 133.79-9.27 134.19-8.23 134.87-7.53 135.56-6.84 136.47-6.49 137.39-6.15 138.44-6.15L138.44-6.15Q139.46-6.15 140.38-6.63 141.29-7.1 141.98-7.89 142.66-8.67 143.05-9.66 143.44-10.64 143.44-11.69L143.44-11.69 143.44-26.15 150.16-26.15 150.16-3.3Q150.13-0.54 149.08 1.88 148.03 4.3 146.21 6.1 144.39 7.91 141.98 8.96 139.56 10.01 136.8 10.01L136.8 10.01Z" opacity="1" transform="matrix(1,0,0,1,0,0)" fill="#333366" class="slogan-text-1" data-fill-palette-color="quaternary" id="text-1"></path></svg></g></svg></g></svg></g></svg></g><g transform="matrix(1,0,0,1,0,27.742296636891147)"><svg viewBox="0 0 132.390576261775 114.53396537261337" height="114.53396537261337" width="132.390576261775"><g><svg xmlns="http://www.w3.org/2000/svg" xmlns:xlink="http://www.w3.org/1999/xlink" version="1.0" x="0" y="0" viewBox="5.185000419616699 11.229998588562012 89.6290054321289 77.54000091552734" enable-background="new 0 0 100 100" xml:space="preserve" height="114.53396537261337" width="132.390576261775" class="icon-icon-0" data-fill-palette-color="quaternary" id="icon-0"><g fill="#333366" data-fill-palette-color="quaternary"><path fill="none" d="M89.354 77.49c0 2.713-1.854 5.215-4.511 6.083-0.021 0.009-0.041 0.015-0.063 0.019l-0.617 0.152c-0.028 0.008-0.058 0.012-0.086 0.017l-21.545 3.167h25.883c2.521 0 4.572-2.051 4.572-4.574V25.648c0-2.2-1.561-4.04-3.633-4.475 0 0.002 0 0.002 0 0.004V77.49z"></path><path fill="none" d="M15.789 83.744l-0.617-0.15c-0.021-0.006-0.043-0.012-0.064-0.02-2.636-0.861-4.408-3.308-4.408-6.082V21.619c-0.031-0.097-0.052-0.199-0.052-0.305 0-0.048 0.007-0.094 0.009-0.143-2.076 0.434-3.641 2.274-3.641 4.478v56.704c0 2.523 2.053 4.574 4.572 4.574h25.833l-21.546-3.166C15.846 83.758 15.818 83.752 15.789 83.744z"></path><path fill="#333366" d="M88.91 19.271c-0.606-1.792-1.982-3.235-3.736-3.92-0.725-2.384-2.963-4.121-5.607-4.121-0.029 0-0.057 0-0.085 0.002l-0.968 0.088c-0.061 0.003-0.116 0.017-0.172 0.032l-14.18 4.105v-0.162c0-0.504-0.409-0.914-0.914-0.914-0.504 0-0.914 0.41-0.914 0.914v0.692l-11.256 3.259h-2.246l-27.264-7.894c-0.057-0.017-0.113-0.029-0.172-0.032l-0.97-0.088c-0.026-0.002-0.058-0.002-0.082-0.002-2.646 0-4.886 1.739-5.606 4.121-1.764 0.686-3.146 2.125-3.754 3.925-3.248 0.306-5.799 3.046-5.799 6.373v56.704c0 3.532 2.871 6.402 6.401 6.402h38.256c0.028 0.005 0.054 0.015 0.079 0.015h0.104c0.006 0 0.01 0 0.014 0 0.023 0 0.049-0.01 0.076-0.015h38.297c3.531 0 6.402-2.87 6.402-6.402V25.648C94.816 22.287 92.207 19.525 88.91 19.271zM12.974 19.246c0.36-0.709 0.903-1.312 1.565-1.748v1.748 1.83 53.65c0 2.506 1.621 4.71 4.033 5.486 0.021 0.008 0.043 0.014 0.063 0.019l18.495 4.806-20.946-3.08-0.541-0.133c-1.864-0.623-3.116-2.361-3.116-4.335V21.179c0-0.037-0.011-0.067-0.015-0.103-0.006-0.051-0.008-0.103-0.021-0.149C12.543 20.328 12.713 19.758 12.974 19.246zM11.588 86.928c-2.521 0-4.572-2.051-4.572-4.574V25.648c0-2.202 1.562-4.044 3.641-4.477-0.002 0.048-0.009 0.094-0.009 0.142 0 0.104 0.021 0.208 0.052 0.304v55.872c0 2.776 1.772 5.224 4.408 6.083 0.021 0.008 0.043 0.014 0.064 0.02l0.617 0.15c0.027 0.008 0.057 0.014 0.086 0.018l21.546 3.168H11.588zM49.392 21.405v64.927l-29.769-7.744-0.521-0.127c-1.638-0.541-2.734-2.037-2.734-3.735V21.076v-1.83-2.365c0-0.027-0.01-0.055-0.011-0.082-0.005-0.051-0.006-0.103-0.021-0.152 0.023-0.273 0.082-0.538 0.16-0.792 0.104-0.333 0.248-0.647 0.434-0.937 0.705-1.105 1.952-1.848 3.375-1.86l0.839 0.077 16.054 4.648 5.06 1.463 1.36 0.394 4.957 1.435 0.816 0.237L49.392 21.405 49.392 21.405zM85.511 74.727v-53.65-1.83-1.643c0.592 0.424 1.078 0.988 1.412 1.643 0.282 0.556 0.452 1.174 0.485 1.83 0.006 0.079 0.014 0.158 0.014 0.238 0 0.15 0.037 0.294 0.104 0.421V77.49c0 1.922-1.322 3.7-3.22 4.336l-0.54 0.131-20.967 3.084 17.967-4.674 0.555-0.135c0.021-0.005 0.043-0.011 0.064-0.02C83.814 79.431 85.511 77.174 85.511 74.727zM65.992 21.698c4.035 0 7.315 3.283 7.315 7.317 0 4.035-3.28 7.318-7.315 7.318s-7.316-3.283-7.316-7.318C58.676 24.981 61.957 21.698 65.992 21.698zM50.611 21.391v-0.104l0.727-0.211 4.967-1.438 1.352-0.393 4.68-1.354v0.869 0.486 0.436 0.957c-0.297 0.13-0.584 0.277-0.863 0.438-2.758 1.575-4.624 4.543-4.624 7.939 0 3.742 2.263 6.961 5.487 8.375v5.197c-3.227 1.414-5.487 4.634-5.487 8.377 0 3.742 2.263 6.963 5.487 8.378v5.341c0 0.505 0.41 0.914 0.914 0.914 0.505 0 0.914-0.409 0.914-0.914v-4.758c0.592 0.121 1.203 0.184 1.83 0.184 5.043 0 9.146-4.102 9.146-9.145 0-5.045-4.103-9.146-9.146-9.146-0.627 0-1.238 0.062-1.83 0.184v-4.026c0.592 0.122 1.203 0.187 1.83 0.187 5.043 0 9.146-4.104 9.146-9.146 0-3.396-1.864-6.365-4.625-7.939-1.334-0.763-2.875-1.207-4.521-1.207-0.627 0-1.238 0.065-1.83 0.187v-0.642-0.168-0.754V17.57v-0.207l14.604-4.228 0.839-0.077c1.423 0.013 2.665 0.755 3.371 1.861 0.185 0.289 0.335 0.603 0.438 0.938 0.094 0.303 0.147 0.619 0.164 0.949 0.005 0.064 0.011 0.128 0.011 0.195 0 0.143 0.032 0.278 0.092 0.402v1.842 1.83 53.65c0 1.654-1.16 3.188-2.827 3.736l-30.242 7.858V21.391H50.611zM65.992 43.648c4.035 0 7.315 3.283 7.315 7.316 0 4.035-3.28 7.315-7.315 7.315s-7.316-3.28-7.316-7.315C58.676 46.932 61.957 43.648 65.992 43.648zM92.986 82.354c0 2.523-2.051 4.574-4.572 4.574H62.531l21.545-3.166c0.028-0.004 0.058-0.01 0.086-0.018l0.617-0.15c0.022-0.006 0.043-0.012 0.063-0.02 2.655-0.869 4.511-3.371 4.511-6.082V21.179c0-0.002 0-0.002 0-0.005 2.072 0.436 3.633 2.274 3.633 4.476V82.354z" data-fill-palette-color="quaternary"></path><path fill="#333366" d="M68.418 34.068c-0.1-0.613-0.664-1.045-1.309-0.941-0.617 0.104-1.037 0.69-0.937 1.307 0.091 0.555 0.562 0.955 1.122 0.955 0.061 0 0.121-0.004 0.185-0.016C68.097 35.273 68.519 34.687 68.418 34.068z" data-fill-palette-color="quaternary"></path><path fill="#333366" d="M64.914 33.773c-1.6-0.361-2.898-1.493-3.482-3.025-0.118-0.314-0.475-0.474-0.785-0.354-0.314 0.119-0.474 0.47-0.354 0.786 0.728 1.917 2.354 3.331 4.354 3.782 0.047 0.012 0.092 0.014 0.135 0.014 0.279 0 0.53-0.191 0.596-0.475C65.449 34.174 65.242 33.849 64.914 33.773z" data-fill-palette-color="quaternary"></path><path fill="#333366" d="M68.418 56.19c-0.102-0.614-0.676-1.041-1.309-0.938-0.617 0.103-1.037 0.688-0.937 1.306 0.09 0.553 0.562 0.955 1.122 0.955 0.061 0 0.121-0.007 0.185-0.017C68.097 57.396 68.519 56.811 68.418 56.19z" data-fill-palette-color="quaternary"></path><path fill="#333366" d="M60.291 53.306c0.729 1.917 2.355 3.331 4.354 3.782 0.046 0.01 0.091 0.015 0.136 0.015 0.278 0 0.529-0.192 0.594-0.476 0.074-0.328-0.131-0.657-0.461-0.729-1.598-0.36-2.897-1.492-3.481-3.024-0.118-0.315-0.476-0.475-0.785-0.354C60.332 52.638 60.173 52.99 60.291 53.306z" data-fill-palette-color="quaternary"></path><path fill="#333366" d="M22.203 24.11l22.287 6.453c0.058 0.017 0.113 0.022 0.17 0.022 0.266 0 0.51-0.174 0.586-0.439 0.094-0.323-0.094-0.662-0.416-0.756l-22.286-6.452c-0.325-0.09-0.661 0.093-0.755 0.417C21.695 23.679 21.882 24.018 22.203 24.11z" data-fill-palette-color="quaternary"></path><path fill="#333366" d="M44.83 35.248l-22.286-6.451c-0.325-0.094-0.661 0.092-0.755 0.414-0.094 0.324 0.093 0.662 0.414 0.756L44.49 36.42c0.058 0.016 0.113 0.025 0.17 0.025 0.266 0 0.51-0.174 0.586-0.441C45.34 35.679 45.154 35.34 44.83 35.248z" data-fill-palette-color="quaternary"></path><path fill="#333366" d="M44.83 40.744l-22.286-6.453c-0.325-0.092-0.661 0.095-0.755 0.416-0.094 0.324 0.093 0.662 0.414 0.758l22.287 6.451c0.058 0.017 0.113 0.024 0.17 0.024 0.266 0 0.51-0.174 0.586-0.442C45.34 41.178 45.154 40.838 44.83 40.744z" data-fill-palette-color="quaternary"></path><path fill="#333366" d="M44.83 45.898l-22.286-6.453c-0.325-0.092-0.661 0.094-0.755 0.417s0.093 0.66 0.414 0.757L44.49 47.07c0.058 0.016 0.113 0.023 0.17 0.023 0.266 0 0.51-0.174 0.586-0.44C45.34 46.332 45.154 45.992 44.83 45.898z" data-fill-palette-color="quaternary"></path><path fill="#333366" d="M44.83 51.395l-22.286-6.452c-0.325-0.09-0.661 0.095-0.755 0.417-0.094 0.325 0.093 0.662 0.414 0.755l22.287 6.453c0.058 0.017 0.113 0.022 0.17 0.022 0.266 0 0.51-0.172 0.586-0.439C45.34 51.83 45.154 51.49 44.83 51.395z" data-fill-palette-color="quaternary"></path><path fill="#333366" d="M44.83 56.965l-22.286-6.452c-0.325-0.093-0.661 0.092-0.755 0.417-0.094 0.32 0.093 0.66 0.414 0.754l22.287 6.453c0.058 0.015 0.113 0.023 0.17 0.023 0.266 0 0.51-0.173 0.586-0.438C45.34 57.396 45.154 57.06 44.83 56.965z" data-fill-palette-color="quaternary"></path><path fill="#333366" d="M44.83 62.461l-22.286-6.453c-0.325-0.092-0.661 0.095-0.755 0.418-0.094 0.322 0.093 0.662 0.414 0.755l22.287 6.45c0.058 0.017 0.113 0.025 0.17 0.025 0.266 0 0.51-0.174 0.586-0.439C45.34 62.894 45.154 62.556 44.83 62.461z" data-fill-palette-color="quaternary"></path><path fill="#333366" d="M44.83 67.615l-22.286-6.451c-0.325-0.092-0.661 0.092-0.755 0.414-0.094 0.325 0.093 0.664 0.414 0.756l22.287 6.451c0.058 0.018 0.113 0.024 0.17 0.024 0.266 0 0.51-0.172 0.586-0.438C45.34 68.047 45.154 67.709 44.83 67.615z" data-fill-palette-color="quaternary"></path><path fill="#333366" d="M44.83 73.111L22.544 66.66c-0.325-0.092-0.661 0.092-0.755 0.416-0.094 0.322 0.093 0.663 0.414 0.758l22.287 6.451c0.058 0.014 0.113 0.024 0.17 0.024 0.266 0 0.51-0.174 0.586-0.44C45.34 73.543 45.154 73.205 44.83 73.111z" data-fill-palette-color="quaternary"></path></g></svg></g></svg></g></svg></g></svg></g></svg></g><defs></defs></svg><rect width="342.85155851775386" height="342.85155851775386" fill="none" stroke="none" visibility="hidden"></rect></g></svg></g></svg>