<svg xmlns="http://www.w3.org/2000/svg" version="1.1" xmlns:xlink="http://www.w3.org/1999/xlink" xmlns:svgjs="http://svgjs.dev/svgjs" width="2000" height="576" viewBox="0 0 2000 576"><g transform="matrix(1,0,0,1,0.213333333333253,-1.2685592447915042)"><svg viewBox="0 0 375 108" data-background-color="#010536" preserveAspectRatio="xMidYMid meet" height="576" width="2000" xmlns="http://www.w3.org/2000/svg" xmlns:xlink="http://www.w3.org/1999/xlink"><g id="tight-bounds" transform="matrix(1,0,0,1,-0.03976036071776434,0.23785485839840703)"><svg viewBox="0 0 375.07952880859375 107.52383422851562" height="107.52383422851562" width="375.07952880859375"><g><svg></svg></g><g><svg viewBox="0 0 375.07952880859375 107.52383422851562" height="107.52383422851562" width="375.07952880859375"><g transform="matrix(1,0,0,1,-10.220239639282227,-72.45870971679688)"><path xmlns="http://www.w3.org/2000/svg" d="M10.22 174.741v-102.282h375.08v102.282h-25.427v-2.453h22.974v-97.377h-370.174v97.377h285.957l0 2.453z" fill="#fbfbf8" fill-rule="nonzero" stroke="none" stroke-width="1" stroke-linecap="butt" stroke-linejoin="miter" stroke-miterlimit="10" stroke-dasharray="" stroke-dashoffset="0" font-family="none" font-weight="none" font-size="none" text-anchor="none" style="mix-blend-mode: normal" data-fill-palette-color="tertiary"></path><g><path xmlns="http://www.w3.org/2000/svg" d="M305.988 176.668v0c0-0.189 0.009-0.362 0.027-0.52 0.018-0.156 0.045-0.293 0.081-0.41v0c0.359-0.018 0.597-0.106 0.714-0.264 0.117-0.156 0.175-0.459 0.175-0.908v0-5.43c0-0.18-0.029-0.328-0.086-0.445-0.059-0.117-0.161-0.207-0.304-0.269-0.144-0.063-0.346-0.103-0.607-0.122v0c0-0.153 0.012-0.308 0.035-0.466 0.022-0.156 0.064-0.297 0.127-0.423v0c0.368 0 0.728-0.022 1.078-0.067 0.35-0.045 0.663-0.102 0.938-0.17 0.273-0.066 0.477-0.136 0.611-0.208v0c0.135 0.054 0.241 0.144 0.318 0.27 0.075 0.126 0.113 0.296 0.114 0.512v0 6.818c0 0.449 0.058 0.752 0.175 0.908 0.117 0.158 0.346 0.246 0.687 0.264v0c0.036 0.117 0.061 0.256 0.075 0.418 0.013 0.162 0.019 0.332 0.019 0.512v0c-0.117-0.009-0.287-0.015-0.512-0.019-0.225-0.005-0.473-0.01-0.746-0.013-0.275-0.005-0.552-0.008-0.83-0.009v0c-0.269 0-0.543 0.003-0.822 0.009-0.278 0.004-0.53 0.008-0.755 0.013-0.225 0.004-0.395 0.01-0.512 0.019zM310.933 176.668v0c0-0.189 0.009-0.362 0.027-0.52 0.018-0.156 0.045-0.293 0.081-0.41v0c0.359-0.018 0.597-0.106 0.714-0.264 0.117-0.156 0.175-0.459 0.175-0.908v0-1.954c0-0.207-0.024-0.377-0.072-0.512-0.05-0.135-0.147-0.236-0.291-0.304-0.144-0.066-0.355-0.109-0.634-0.127v0c0-0.153 0.012-0.308 0.035-0.466 0.022-0.156 0.064-0.297 0.127-0.423v0c0.368 0 0.728-0.022 1.078-0.068 0.35-0.045 0.663-0.102 0.938-0.17 0.273-0.066 0.477-0.136 0.612-0.207v0c0.135 0.054 0.241 0.144 0.317 0.269 0.075 0.126 0.113 0.296 0.114 0.512v0 3.45c0 0.449 0.058 0.752 0.175 0.908 0.117 0.158 0.346 0.246 0.687 0.264v0c0.036 0.117 0.061 0.256 0.075 0.418 0.013 0.162 0.019 0.332 0.019 0.512v0c-0.117-0.009-0.287-0.015-0.512-0.019-0.225-0.005-0.473-0.01-0.746-0.013-0.275-0.005-0.552-0.008-0.83-0.009v0c-0.269 0-0.543 0.003-0.822 0.009-0.278 0.004-0.527 0.008-0.747 0.013-0.221 0.004-0.394 0.01-0.52 0.019zM312.86 169.459v0c-0.368 0-0.665-0.093-0.889-0.277-0.225-0.183-0.337-0.428-0.337-0.733v0c0-0.35 0.124-0.623 0.372-0.817 0.246-0.192 0.553-0.288 0.922-0.288v0c0.422 0 0.744 0.094 0.964 0.283 0.219 0.189 0.329 0.458 0.329 0.808v0c0 0.296-0.121 0.541-0.364 0.733-0.243 0.194-0.575 0.291-0.997 0.291zM318.748 175.644l-0.134-0.391c0.144 0.198 0.299 0.35 0.466 0.458 0.165 0.108 0.365 0.162 0.598 0.162v0c0.162 0 0.332-0.031 0.512-0.094 0.18-0.063 0.35-0.182 0.512-0.359 0.162-0.174 0.29-0.419 0.386-0.733 0.093-0.314 0.14-0.723 0.14-1.226v0c0-0.359-0.042-0.685-0.127-0.978-0.086-0.291-0.215-0.522-0.385-0.693-0.171-0.171-0.391-0.256-0.661-0.256v0c-0.207 0-0.411 0.069-0.611 0.208-0.203 0.14-0.369 0.369-0.499 0.687-0.131 0.32-0.197 0.749-0.197 1.288v0zM319.692 176.749v0c-0.476 0-0.945-0.04-1.407-0.122-0.464-0.081-0.877-0.196-1.24-0.344-0.365-0.147-0.641-0.315-0.83-0.504v0c0.108-0.135 0.187-0.313 0.237-0.534 0.049-0.219 0.073-0.508 0.073-0.868v0-5.133c0-0.207-0.024-0.377-0.073-0.512-0.05-0.135-0.147-0.236-0.291-0.305-0.144-0.066-0.355-0.109-0.633-0.127v0c0-0.153 0.012-0.308 0.035-0.466 0.022-0.156 0.064-0.297 0.127-0.423v0c0.368 0 0.728-0.022 1.078-0.067 0.35-0.045 0.663-0.102 0.937-0.17 0.273-0.066 0.477-0.136 0.612-0.208v0c0.135 0.054 0.241 0.144 0.318 0.27 0.075 0.126 0.113 0.296 0.113 0.512v0 2.627c0 0.269-0.009 0.482-0.027 0.639-0.018 0.158-0.049 0.331-0.094 0.52v0l-0.148 0.93-0.323-0.121c0.162-0.377 0.314-0.672 0.458-0.884 0.144-0.21 0.283-0.369 0.417-0.477v0c0.108-0.099 0.25-0.198 0.426-0.297 0.174-0.099 0.376-0.182 0.606-0.25 0.228-0.066 0.468-0.1 0.72-0.1v0c0.521 0 0.984 0.096 1.388 0.288 0.404 0.194 0.726 0.498 0.965 0.911 0.237 0.413 0.356 0.943 0.355 1.59v0c0 0.719-0.159 1.349-0.477 1.892-0.32 0.544-0.763 0.969-1.328 1.275-0.566 0.305-1.231 0.458-1.994 0.458zM327.588 173.569v0.579c0 0.386 0.043 0.689 0.129 0.908 0.084 0.221 0.227 0.383 0.428 0.485 0.203 0.104 0.484 0.17 0.844 0.197v0c0.045 0.126 0.075 0.271 0.089 0.437 0.013 0.167 0.019 0.331 0.019 0.493v0c-0.162-0.009-0.368-0.015-0.62-0.019-0.252-0.005-0.519-0.01-0.803-0.013-0.282-0.005-0.558-0.008-0.828-0.009v0c-0.44 0-0.894 0.003-1.36 0.009-0.467 0.004-0.84 0.014-1.119 0.032v0c0-0.216 0.006-0.398 0.019-0.547 0.014-0.147 0.04-0.275 0.075-0.383v0c0.243-0.018 0.429-0.066 0.561-0.143 0.129-0.075 0.219-0.212 0.27-0.409 0.049-0.198 0.073-0.49 0.072-0.876v0-0.741zM327.318 172.585l0.27 0.068v1.185h-2.224v-1.455l2.224-1.253c0 0.18-0.024 0.382-0.073 0.606-0.05 0.225-0.116 0.508-0.197 0.849zM327.588 173.69l-0.297-1.064c0.063-0.18 0.135-0.384 0.216-0.615 0.081-0.228 0.153-0.396 0.215-0.504v0c0.198-0.314 0.445-0.575 0.741-0.781 0.296-0.207 0.624-0.31 0.984-0.31v0c0.35 0 0.674 0.108 0.97 0.323v0c-0.027 0.189-0.054 0.409-0.081 0.66-0.027 0.252-0.042 0.506-0.046 0.763-0.005 0.255-0.004 0.486 0.006 0.693v0c-0.153 0.063-0.355 0.105-0.606 0.126-0.252 0.023-0.467 0.035-0.647 0.035v0c-0.018-0.323-0.072-0.555-0.162-0.695-0.09-0.138-0.225-0.207-0.404-0.207v0c-0.126 0-0.259 0.076-0.399 0.229-0.138 0.153-0.254 0.348-0.348 0.584-0.095 0.239-0.143 0.493-0.142 0.763zM327.588 171.13l-2.224 2.708v-1.037c0-0.278-0.018-0.494-0.054-0.647-0.036-0.153-0.124-0.268-0.264-0.345-0.138-0.075-0.356-0.122-0.652-0.14v0c0-0.153 0.012-0.308 0.035-0.466 0.022-0.156 0.064-0.297 0.127-0.423v0c0.566 0 1.089-0.048 1.568-0.143 0.481-0.093 0.83-0.194 1.046-0.302v0c0.135 0.054 0.238 0.144 0.31 0.269 0.072 0.126 0.108 0.301 0.108 0.526zM335.672 176.749v0c-0.171-0.063-0.292-0.157-0.364-0.283-0.072-0.126-0.108-0.292-0.107-0.499v0c0-0.117 0.013-0.259 0.04-0.426 0.027-0.165 0.067-0.324 0.121-0.477v0l0.054-0.053c-0.081 0.278-0.184 0.518-0.31 0.719-0.126 0.203-0.274 0.372-0.444 0.507v0c-0.189 0.162-0.418 0.283-0.688 0.364-0.269 0.081-0.579 0.121-0.929 0.121v0c-0.62 0-1.105-0.13-1.456-0.391-0.35-0.261-0.525-0.642-0.525-1.145v0c0-0.341 0.079-0.636 0.237-0.884 0.156-0.246 0.372-0.457 0.647-0.633 0.273-0.174 0.578-0.315 0.913-0.424 0.338-0.108 0.689-0.196 1.054-0.264 0.363-0.066 0.72-0.127 1.07-0.18v0c0-0.216-0.006-0.404-0.019-0.566-0.014-0.162-0.041-0.304-0.081-0.426-0.041-0.12-0.107-0.225-0.196-0.315v0c-0.099-0.117-0.213-0.198-0.343-0.243-0.131-0.045-0.26-0.067-0.385-0.067v0c-0.225 0-0.409 0.067-0.553 0.202-0.144 0.135-0.252 0.316-0.323 0.544-0.072 0.23-0.121 0.48-0.148 0.749v0c-0.261 0-0.494-0.009-0.701-0.026-0.207-0.018-0.395-0.063-0.566-0.135v0c0.018-0.252 0.022-0.517 0.014-0.795-0.009-0.278-0.045-0.57-0.108-0.876v0c0.386-0.162 0.84-0.29 1.361-0.385 0.521-0.093 1.02-0.14 1.496-0.141v0c0.593 0 1.06 0.065 1.401 0.195 0.341 0.131 0.597 0.282 0.768 0.452v0c0.18 0.18 0.326 0.433 0.439 0.76 0.111 0.329 0.167 0.812 0.167 1.45v0 1.038c0 0.305 0.018 0.539 0.054 0.7 0.036 0.162 0.11 0.271 0.224 0.329 0.111 0.059 0.275 0.093 0.49 0.102v0c0.027 0.171 0.031 0.337 0.014 0.499-0.018 0.162-0.063 0.314-0.135 0.458v0c-0.368 0.009-0.741 0.049-1.118 0.121-0.377 0.072-0.732 0.18-1.065 0.324zM333.84 175.442v0c0.18 0 0.358-0.057 0.533-0.17 0.174-0.111 0.32-0.284 0.437-0.517 0.117-0.234 0.175-0.521 0.175-0.863v0-0.31c-0.278 0.054-0.527 0.117-0.747 0.189-0.221 0.072-0.403 0.153-0.547 0.242-0.144 0.09-0.252 0.198-0.323 0.324-0.072 0.126-0.108 0.274-0.108 0.444v0c0 0.234 0.057 0.402 0.17 0.504 0.111 0.104 0.248 0.156 0.41 0.157zM341.938 173.569v0.579c0 0.386 0.042 0.689 0.126 0.908 0.086 0.221 0.231 0.383 0.434 0.485 0.201 0.104 0.481 0.17 0.841 0.197v0c0.045 0.126 0.075 0.271 0.089 0.437 0.013 0.167 0.019 0.331 0.019 0.493v0c-0.162-0.009-0.368-0.015-0.62-0.019-0.252-0.005-0.518-0.01-0.8-0.013-0.284-0.005-0.561-0.008-0.83-0.009v0c-0.44 0-0.894 0.003-1.361 0.009-0.467 0.004-0.84 0.014-1.119 0.032v0c0-0.216 0.006-0.398 0.019-0.547 0.014-0.147 0.04-0.275 0.076-0.383v0c0.243-0.018 0.429-0.066 0.56-0.143 0.129-0.075 0.219-0.212 0.27-0.409 0.049-0.198 0.073-0.49 0.072-0.876v0-0.741zM341.668 172.585l0.27 0.068v1.185h-2.224v-1.455l2.224-1.253c0 0.18-0.025 0.382-0.076 0.606-0.049 0.225-0.113 0.508-0.194 0.849zM341.938 173.69l-0.297-1.064c0.063-0.18 0.135-0.384 0.216-0.615 0.081-0.228 0.153-0.396 0.215-0.504v0c0.198-0.314 0.445-0.575 0.742-0.781 0.296-0.207 0.624-0.31 0.983-0.31v0c0.35 0 0.674 0.108 0.97 0.323v0c-0.027 0.189-0.054 0.409-0.081 0.66-0.027 0.252-0.042 0.506-0.045 0.763-0.005 0.255-0.004 0.486 0.005 0.693v0c-0.153 0.063-0.355 0.105-0.606 0.126-0.252 0.023-0.467 0.035-0.647 0.035v0c-0.018-0.323-0.072-0.555-0.162-0.695-0.09-0.138-0.225-0.207-0.404-0.207v0c-0.126 0-0.258 0.076-0.396 0.229-0.14 0.153-0.257 0.348-0.35 0.584-0.095 0.239-0.143 0.493-0.143 0.763zM341.938 171.13l-2.224 2.708v-1.037c0-0.278-0.018-0.494-0.053-0.647-0.036-0.153-0.124-0.268-0.265-0.345-0.138-0.075-0.356-0.122-0.652-0.14v0c0-0.153 0.012-0.308 0.035-0.466 0.022-0.156 0.064-0.297 0.127-0.423v0c0.566 0 1.09-0.048 1.571-0.143 0.48-0.093 0.827-0.194 1.043-0.302v0c0.135 0.054 0.238 0.144 0.31 0.269 0.072 0.126 0.108 0.301 0.108 0.526zM349.429 174.957l0.93-2.345c0.189-0.458 0.247-0.773 0.175-0.943-0.072-0.171-0.252-0.278-0.539-0.323v0c-0.045-0.117-0.078-0.259-0.099-0.426-0.023-0.165-0.035-0.333-0.035-0.504v0c0.207 0.009 0.428 0.018 0.665 0.027 0.239 0.009 0.471 0.013 0.695 0.013v0c0.234 0 0.458-0.004 0.674-0.013 0.216-0.009 0.422-0.018 0.62-0.027v0c0 0.135-0.012 0.289-0.035 0.463-0.022 0.176-0.059 0.331-0.113 0.467v0c-0.144 0.036-0.268 0.09-0.372 0.161-0.102 0.072-0.196 0.178-0.28 0.318-0.086 0.138-0.183 0.333-0.291 0.585v0l-1.981 4.716c-0.252 0.611-0.485 1.105-0.701 1.482-0.216 0.377-0.42 0.665-0.614 0.863-0.192 0.198-0.389 0.332-0.59 0.404-0.203 0.072-0.421 0.108-0.655 0.108v0c-0.287 0-0.56-0.06-0.817-0.181-0.255-0.122-0.45-0.269-0.585-0.439v0c-0.027-0.171-0.03-0.386-0.008-0.647 0.023-0.261 0.071-0.49 0.143-0.687v0c0.153 0.054 0.352 0.103 0.598 0.148 0.248 0.045 0.511 0.067 0.79 0.067v0c0.296 0 0.539-0.047 0.728-0.14 0.189-0.095 0.359-0.264 0.512-0.506v0c0.072-0.108 0.218-0.395 0.439-0.863 0.219-0.467 0.468-1.06 0.746-1.778zM349.834 175.253l-1.334 2.035c-0.225-0.53-0.467-1.085-0.728-1.666-0.261-0.579-0.518-1.146-0.773-1.703-0.257-0.557-0.498-1.06-0.723-1.509v0c-0.135-0.287-0.253-0.501-0.355-0.641-0.104-0.138-0.208-0.237-0.313-0.297-0.102-0.057-0.216-0.1-0.342-0.126v0c-0.036-0.117-0.065-0.263-0.086-0.44-0.023-0.174-0.035-0.338-0.035-0.49v0c0.261 0.009 0.561 0.018 0.902 0.027 0.341 0.009 0.683 0.013 1.024 0.013v0c0.35 0 0.73-0.004 1.14-0.013 0.408-0.009 0.751-0.018 1.03-0.027v0c0 0.162-0.013 0.332-0.041 0.512-0.027 0.18-0.058 0.319-0.094 0.418v0c-0.377 0.063-0.588 0.166-0.633 0.309-0.045 0.144 0.04 0.422 0.256 0.836v0c0.126 0.252 0.256 0.527 0.39 0.827 0.135 0.302 0.262 0.614 0.383 0.938 0.122 0.323 0.233 0.656 0.332 0.997z" fill="#fbfbf8" fill-rule="nonzero" stroke="none" stroke-width="1" stroke-linecap="butt" stroke-linejoin="miter" stroke-miterlimit="10" stroke-dasharray="" stroke-dashoffset="0" font-family="none" font-weight="none" font-size="none" text-anchor="none" style="mix-blend-mode: normal" data-fill-palette-color="secondary"></path></g></g><g transform="matrix(1,0,0,1,29.331764404296877,34.96773135801048)"><svg viewBox="0 0 316.416 37.58837151249467" height="37.58837151249467" width="316.416"><g><svg viewBox="0 0 367.535314623451 43.66104732386444" height="37.58837151249467" width="316.416"><g transform="matrix(1,0,0,1,0,6.0341968443256935)"><svg viewBox="0 0 316.416 31.59265363521305" height="31.59265363521305" width="316.416"><g id="textblocktransform"><svg viewBox="0 0 316.416 31.59265363521305" height="31.59265363521305" width="316.416" id="textblock"><g><svg viewBox="0 0 316.416 31.59265363521305" height="31.59265363521305" width="316.416"><g transform="matrix(1,0,0,1,0,0)"><svg width="316.416" viewBox="3.3499999046325684 -34.900001525878906 355.5299987792969 35.5" height="31.59265363521305" data-palette-color="#fbfbf8"><path d="M3.35 0L3.35-34.3 14.65-34.3 19.45-15.4Q20-13.25 21.05-7.65L21.05-7.65 21.3-7.65Q22.2-13.5 22.7-15.4L22.7-15.4 27.5-34.3 38.3-34.3 38.3 0 31.05 0 31.05-21.85Q31.05-23.3 31.35-27.35L31.35-27.35 31.1-27.35 30.05-23.3 24.15 0 17.25 0 11.35-23.3 10.3-27.35 10.05-27.35Q10.35-23.15 10.35-21.85L10.35-21.85 10.35 0 3.35 0ZM41.75 0L55.15-34.3 64.25-34.3 77.65 0 69.75 0 67.3-6.55 51.7-6.55 49.25 0 41.75 0ZM53.95-12.6L65-12.6 61.75-21.3Q61.15-22.9 59.6-28.05L59.6-28.05 59.35-28.05Q57.8-22.9 57.2-21.3L57.2-21.3 53.95-12.6ZM81.09 0L81.09-34.3 88.15-34.3 101.34-15.65Q101.95-14.8 103.34-12.3L103.34-12.3 103.59-12.45 103.45-15.35 103.45-34.3 110.5-34.3 110.5 0 103.45 0 90.2-18.8Q89.25-20.15 88.25-22.1L88.25-22.1 88-21.95Q88.15-19.8 88.15-18.95L88.15-18.95 88.15 0 81.09 0ZM132.54 0.6Q124.59 0.6 120.27-3.75 115.94-8.1 115.94-17.15L115.94-17.15Q115.94-26 120.54-30.45 125.14-34.9 133.54-34.9L133.54-34.9Q137.99-34.9 141.67-33.52 145.34-32.15 147.52-29.38 149.69-26.6 149.69-22.6L149.69-22.6 142.19-22.6Q142.19-25.4 139.72-27.08 137.24-28.75 133.79-28.75L133.79-28.75Q128.54-28.75 125.97-25.95 123.39-23.15 123.39-17.9L123.39-17.9 123.39-16.4Q123.39-10.9 125.77-8.22 128.14-5.55 133.04-5.55L133.04-5.55Q137.09-5.55 139.74-7.48 142.39-9.4 142.44-12.7L142.44-12.7 132.04-12.7 132.04-18.65 149.69-18.65 149.69 0 144.69 0 144.04-3.8Q141.64-1.5 138.99-0.45 136.34 0.6 132.54 0.6L132.54 0.6ZM152.84 0L166.24-34.3 175.34-34.3 188.74 0 180.84 0 178.39-6.55 162.79-6.55 160.34 0 152.84 0ZM165.04-12.6L176.09-12.6 172.84-21.3Q172.24-22.9 170.69-28.05L170.69-28.05 170.44-28.05Q168.89-22.9 168.29-21.3L168.29-21.3 165.04-12.6ZM192.19 0L192.19-34.3 199.24-34.3 212.44-15.65Q213.04-14.8 214.44-12.3L214.44-12.3 214.69-12.45 214.54-15.35 214.54-34.3 221.59-34.3 221.59 0 214.54 0 201.29-18.8Q200.34-20.15 199.34-22.1L199.34-22.1 199.09-21.95Q199.24-19.8 199.24-18.95L199.24-18.95 199.24 0 192.19 0ZM228.28 0L228.28-34.3 255.24-34.3 255.24-28.15 235.53-28.15 235.53-20.6 253.03-20.6 253.03-14.45 235.53-14.45 235.53-6.15 255.53-6.15 255.53 0 228.28 0ZM258.28 0L270.13-18 259.38-34.3 268.18-34.3 275.13-23.2 275.38-23.2 282.28-34.3 290.48-34.3 279.68-18.1 291.58 0 282.83 0 274.73-12.9 274.48-12.9 266.48 0 258.28 0ZM309.63 0.6Q302.68 0.6 298.83-2.8 294.98-6.2 294.98-12.75L294.98-12.75 294.98-34.3 302.23-34.3 302.23-13.1Q302.23-9.4 304.16-7.48 306.08-5.55 309.63-5.55L309.63-5.55Q313.18-5.55 315.16-7.48 317.13-9.4 317.13-13.1L317.13-13.1 317.13-34.3 324.38-34.3 324.38-12.75Q324.38-6.2 320.51-2.8 316.63 0.6 309.63 0.6L309.63 0.6ZM344.23 0.6Q340.28 0.6 337-0.63 333.73-1.85 331.78-4.25 329.83-6.65 329.83-10.05L329.83-10.05 329.88-11.15 337.23-11.15 337.18-10.35Q337.18-8.15 339.13-6.85 341.08-5.55 344.58-5.55L344.58-5.55Q348.28-5.55 349.93-6.53 351.58-7.5 351.58-9.15L351.58-9.15Q351.58-10.6 350.5-11.58 349.43-12.55 347.8-13.13 346.18-13.7 343.33-14.5L343.33-14.5Q339.28-15.65 336.78-16.7 334.28-17.75 332.48-19.83 330.68-21.9 330.68-25.3L330.68-25.3Q330.68-30 334.48-32.45 338.28-34.9 344.58-34.9L344.58-34.9Q350.53-34.9 354.3-32.38 358.08-29.85 358.08-24.8L358.08-24.8 358.08-24.2 350.88-24.2 350.88-24.65Q350.88-26.55 349.15-27.65 347.43-28.75 344.48-28.75L344.48-28.75Q341.33-28.75 339.65-27.9 337.98-27.05 337.98-25.55L337.98-25.55Q337.98-24.4 338.98-23.58 339.98-22.75 341.48-22.23 342.98-21.7 345.73-20.95L345.73-20.95Q349.83-19.85 352.45-18.78 355.08-17.7 356.98-15.6 358.88-13.5 358.88-10.1L358.88-10.1Q358.88-4.6 354.95-2 351.03 0.6 344.23 0.6L344.23 0.6Z" opacity="1" transform="matrix(1,0,0,1,0,0)" fill="#fbfbf8" class="wordmark-text-0" data-fill-palette-color="primary" id="text-0"></path></svg></g></svg></g></svg></g></svg></g><g transform="matrix(1,0,0,1,323.87426729958656,0)"><svg viewBox="0 0 43.66104732386444 43.66104732386444" height="43.66104732386444" width="43.66104732386444"><g data-palette-color="#ffff00"><rect width="11.93401960185628" height="43.66104732386444" fill="#ffff00" stroke="transparent" data-fill-palette-color="accent" x="0" fill-opacity="1"></rect><rect width="11.93401960185628" height="43.66104732386444" fill="#ffff00" stroke="transparent" data-fill-palette-color="accent" x="14.553682441288146" fill-opacity="0.75"></rect><rect width="11.93401960185628" height="43.66104732386444" fill="#ffff00" stroke="transparent" data-fill-palette-color="accent" x="29.10736488257629" fill-opacity="0.5"></rect></g></svg></g></svg></g></svg></g></svg></g><defs></defs></svg><rect width="375.07952880859375" height="107.52383422851562" fill="none" stroke="none" visibility="hidden"></rect></g></svg></g></svg>